<?xml version="1.0" standalone="no"?>
<!DOCTYPE svg PUBLIC "-//W3C//DTD SVG 20010904//EN"
 "http://www.w3.org/TR/2001/REC-SVG-20010904/DTD/svg10.dtd">
<svg version="1.0" xmlns="http://www.w3.org/2000/svg"
 width="1190.000000pt" height="1218.000000pt" viewBox="0 0 1190.000000 1218.000000"
 preserveAspectRatio="xMidYMid meet">

<g transform="translate(0.000000,1218.000000) scale(0.100000,-0.100000)"
fill="#000000" stroke="none">
<path d="M5437 12169 c-59 -14 -129 -54 -174 -99 -107 -106 -395 -494 -563
-759 -541 -849 -892 -1775 -1029 -2716 -49 -336 -55 -444 -56 -965 0 -504 8
-686 46 -1109 20 -217 20 -225 2 -247 -190 -234 -310 -414 -422 -633 -195
-382 -310 -782 -363 -1256 -17 -159 -18 -756 0 -925 42 -409 126 -825 241
-1205 32 -104 46 -135 70 -157 40 -36 89 -45 134 -23 56 26 68 54 83 194 74
676 320 1357 702 1943 43 65 80 118 84 118 3 0 24 -33 47 -74 62 -113 123
-174 193 -191 21 -5 25 -15 36 -83 30 -191 172 -348 357 -397 50 -13 156 -15
696 -15 391 0 657 4 690 10 131 25 274 131 333 248 30 58 56 151 56 197 0 26
7 34 56 59 62 33 93 69 156 184 l40 73 75 -111 c386 -577 646 -1281 718 -1945
18 -166 27 -188 89 -219 47 -23 95 -15 134 23 22 23 39 64 75 183 227 754 305
1528 221 2193 -86 685 -329 1263 -735 1750 l-66 81 18 184 c59 611 72 1299 33
1760 -46 551 -175 1128 -369 1663 -159 436 -391 911 -648 1327 -230 373 -572
825 -670 887 -86 54 -196 74 -290 52z m191 -155 c44 -22 71 -50 166 -168 283
-354 537 -742 715 -1096 91 -180 195 -410 188 -416 -2 -2 -538 -3 -1190 -2
l-1187 3 98 200 c202 410 401 736 672 1100 200 269 273 353 333 381 71 32 137
32 205 -2z m-727 -1824 l619 0 -2 -352 -3 -352 -73 -13 c-100 -16 -161 -37
-264 -90 -210 -108 -376 -314 -440 -550 -29 -106 -31 -326 -4 -426 45 -170
117 -299 230 -412 134 -134 268 -207 445 -243 74 -15 96 -23 101 -38 4 -10 8
-233 9 -494 l1 -475 -59 -67 c-226 -256 -366 -531 -442 -873 -22 -98 -23 -116
-26 -863 l-4 -762 -242 0 c-323 1 -312 -5 -415 190 -244 458 -433 1186 -521
2015 -54 500 -80 1174 -62 1572 35 742 182 1419 459 2108 58 146 66 162 70
142 3 -16 49 -17 623 -17z m1911 -145 c174 -495 288 -1047 327 -1590 16 -216
24 -465 15 -465 -5 1 -110 165 -234 365 -123 200 -225 363 -227 362 -1 -2 7
-36 17 -77 103 -394 193 -935 235 -1400 22 -245 30 -733 16 -960 -56 -877
-282 -1514 -711 -2005 l-83 -95 -49 0 -48 0 0 718 c0 844 -2 866 -92 1142 -75
232 -217 474 -379 647 l-49 52 0 494 0 494 89 7 c484 36 840 435 818 915 -20
453 -359 798 -819 836 l-88 7 0 349 0 349 606 -2 607 -3 49 -140z m-1067 -770
c315 -71 541 -374 522 -700 -14 -246 -155 -465 -369 -569 -119 -59 -189 -76
-309 -76 -306 0 -559 184 -656 475 -23 69 -26 97 -27 205 0 115 3 132 31 213
41 116 84 187 164 267 171 174 402 240 644 185z m-225 -3920 l0 -1175 -201 0
-200 0 4 733 c3 635 6 743 21 817 57 288 150 508 301 713 36 48 67 87 70 87 3
0 5 -529 5 -1175z m135 1039 c115 -170 216 -422 257 -639 20 -104 21 -151 25
-842 l4 -733 -195 0 -196 0 0 1178 1 1177 25 -30 c14 -16 49 -66 79 -111z
m1714 -1249 c0 -639 -3 -922 -10 -905 -51 124 -120 436 -143 640 -26 236 -30
395 -11 480 47 220 69 335 100 525 19 116 35 214 35 219 0 6 7 1 15 -10 12
-16 14 -146 14 -949z m-3645 838 c24 -166 81 -464 118 -618 l30 -130 -12 -145
c-20 -248 -76 -533 -144 -725 l-25 -70 0 903 c-1 496 3 902 7 902 5 0 16 -53
26 -117z m-91 -2358 c-18 -39 -18 -39 -23 205 l-5 244 -59 -133 c-33 -72 -63
-134 -68 -137 -4 -3 -8 439 -8 983 l0 988 38 61 c20 33 60 93 87 132 l50 72 3
-1188 c2 -1117 1 -1189 -15 -1227z m3871 2267 l86 -128 0 -1025 c-1 -862 -3
-1021 -14 -1006 -8 10 -38 71 -67 137 l-54 120 -5 -211 c-5 -211 -5 -212 -22
-175 -17 34 -18 114 -18 1226 0 655 2 1190 4 1190 2 0 43 -58 90 -128z m-4081
-2832 l-18 -65 -5 295 -5 295 -53 -160 c-86 -263 -147 -531 -169 -750 l-7 -70
-13 45 c-44 148 -111 545 -139 830 -23 230 -23 671 0 885 50 463 162 852 350
1220 l71 140 3 -1300 c2 -1218 1 -1304 -15 -1365z m4302 2447 c162 -336 262
-687 312 -1097 25 -204 25 -777 0 -1000 -28 -244 -98 -644 -136 -775 l-8 -30
-7 35 c-3 19 -11 67 -17 105 -26 179 -66 337 -147 585 l-57 175 -5 -270 -5
-270 -17 67 c-17 62 -18 161 -18 1370 0 1190 1 1301 16 1280 8 -13 49 -91 89
-175z m-2905 -1652 c0 -69 -3 -125 -7 -125 -14 0 -77 41 -106 68 -38 36 -84
110 -92 150 l-7 32 106 0 106 0 0 -125z m225 63 c3 -35 5 -97 3 -138 l-3 -75
-83 2 c-46 1 -90 4 -98 7 -11 4 -14 32 -14 136 l0 130 94 0 94 0 7 -62z m230
-10 c4 -40 5 -102 3 -138 l-3 -65 -95 0 -95 0 -3 138 -3 137 95 0 94 0 7 -72z
m225 -68 l0 -140 -95 0 -95 0 0 140 0 140 95 0 95 0 0 -140z m230 0 l0 -140
-95 0 -95 0 0 140 0 140 95 0 95 0 0 -140z m230 0 l0 -140 -95 0 -95 0 0 140
0 140 95 0 95 0 0 -140z m230 6 l0 -133 -46 -7 c-26 -3 -69 -6 -95 -6 l-49 0
0 140 0 140 95 0 95 0 0 -134z m260 119 c0 -22 -37 -93 -71 -136 -29 -37 -115
-99 -137 -99 -9 0 -12 37 -12 125 l0 125 110 0 c92 0 110 -2 110 -15z m-3181
-1700 l0 -20 -9 20 c-5 11 -9 27 -9 35 -1 13 0 13 9 0 5 -8 9 -24 9 -35z"/>
<path d="M4927 10513 c-13 -12 -7 -41 10 -47 21 -8 48 17 40 38 -6 16 -38 22
-50 9z m33 -18 c0 -8 -4 -15 -9 -15 -13 0 -22 16 -14 24 11 11 23 6 23 -9z"/>
<path d="M5503 10504 c-3 -8 2 -23 11 -32 15 -15 17 -15 32 0 21 21 11 48 -16
48 -11 0 -23 -7 -27 -16z m39 -9 c0 -5 -5 -11 -11 -13 -6 -2 -11 4 -11 13 0 9
5 15 11 13 6 -2 11 -8 11 -13z"/>
<path d="M6083 10504 c-3 -8 2 -23 11 -32 15 -15 17 -15 32 0 21 21 11 48 -16
48 -11 0 -23 -7 -27 -16z m39 -9 c0 -5 -5 -11 -11 -13 -6 -2 -11 4 -11 13 0 9
5 15 11 13 6 -2 11 -8 11 -13z"/>
<path d="M5351 9847 c-17 -21 -3 -49 23 -45 15 2 21 10 21 28 0 28 -26 38 -44
17z m37 -18 c-2 -6 -8 -10 -13 -10 -5 0 -11 4 -13 10 -2 6 4 11 13 11 9 0 15
-5 13 -11z"/>
<path d="M5327 7475 c-30 -30 5 -65 40 -40 14 11 16 18 7 31 -15 25 -29 27
-47 9z m33 -21 c0 -9 -5 -14 -12 -12 -18 6 -21 28 -4 28 9 0 16 -7 16 -16z"/>
<path d="M5325 7004 c-11 -12 -12 -20 -5 -35 13 -22 20 -24 44 -6 10 7 15 19
11 29 -9 24 -32 29 -50 12z m35 -19 c0 -8 -7 -15 -15 -15 -8 0 -15 7 -15 15 0
8 7 15 15 15 8 0 15 -7 15 -15z"/>
<path d="M5683 9653 c-18 -6 -16 -50 1 -56 8 -3 22 1 33 8 28 21 -1 62 -34 48z
m27 -29 c0 -17 -22 -14 -28 4 -2 7 3 12 12 12 9 0 16 -7 16 -16z"/>
<path d="M5683 7353 c-7 -2 -13 -16 -13 -29 0 -19 5 -24 25 -24 30 0 43 24 25
45 -13 16 -17 17 -37 8z m27 -29 c0 -9 -5 -14 -12 -12 -18 6 -21 28 -4 28 9 0
16 -7 16 -16z"/>
<path d="M5693 6883 c-18 -6 -16 -50 1 -56 8 -3 22 1 33 8 28 21 -1 62 -34 48z
m27 -29 c0 -17 -22 -14 -28 4 -2 7 3 12 12 12 9 0 16 -7 16 -16z"/>
<path d="M6094 8606 c-10 -26 4 -48 28 -44 17 2 23 10 23 28 0 18 -6 26 -23
28 -13 2 -25 -3 -28 -12z m38 -11 c0 -5 -5 -11 -11 -13 -6 -2 -11 4 -11 13 0
9 5 15 11 13 6 -2 11 -8 11 -13z"/>
<path d="M5361 5867 c-17 -21 -3 -49 23 -45 15 2 21 10 21 28 0 28 -26 38 -44
17z m37 -18 c-2 -6 -8 -10 -13 -10 -5 0 -11 4 -13 10 -2 6 4 11 13 11 9 0 15
-5 13 -11z"/>
<path d="M5353 5184 c-3 -8 2 -23 11 -32 15 -15 17 -15 32 0 21 21 11 48 -16
48 -11 0 -23 -7 -27 -16z m39 -9 c0 -5 -5 -11 -11 -13 -6 -2 -11 4 -11 13 0 9
5 15 11 13 6 -2 11 -8 11 -13z"/>
<path d="M5360 4515 c-11 -13 -11 -19 3 -32 21 -21 49 -9 45 19 -4 28 -30 35
-48 13z m40 -16 c0 -5 -7 -9 -15 -9 -15 0 -20 12 -9 23 8 8 24 -1 24 -14z"/>
<path d="M5654 5865 c-9 -23 3 -45 26 -45 25 0 37 25 20 45 -16 19 -39 19 -46
0z m34 -16 c-2 -6 -8 -10 -13 -10 -5 0 -11 4 -13 10 -2 6 4 11 13 11 9 0 15
-5 13 -11z"/>
<path d="M5657 5193 c-13 -12 -7 -41 10 -47 21 -8 48 17 40 38 -6 16 -38 22
-50 9z m33 -18 c0 -8 -4 -15 -9 -15 -13 0 -22 16 -14 24 11 11 23 6 23 -9z"/>
<path d="M5654 4515 c-8 -21 2 -45 19 -45 21 0 38 25 31 44 -8 20 -43 21 -50
1z m36 -16 c0 -5 -7 -9 -15 -9 -15 0 -20 12 -9 23 8 8 24 -1 24 -14z"/>
<path d="M3264 4905 c-9 -23 3 -45 25 -45 23 0 35 28 20 46 -15 18 -38 18 -45
-1z m34 -16 c-2 -6 -8 -10 -13 -10 -5 0 -11 4 -13 10 -2 6 4 11 13 11 9 0 15
-5 13 -11z"/>
<path d="M3142 3721 c-21 -13 -10 -46 16 -49 27 -4 40 22 22 43 -14 17 -20 18
-38 6z m28 -27 c0 -17 -22 -14 -28 4 -2 7 3 12 12 12 9 0 16 -7 16 -16z"/>
<path d="M7800 4925 c-18 -21 -5 -47 22 -43 26 3 37 36 16 49 -18 12 -24 11
-38 -6z m32 -20 c0 -5 -5 -11 -11 -13 -6 -2 -11 4 -11 13 0 9 5 15 11 13 6 -2
11 -8 11 -13z"/>
<path d="M7881 3706 c-15 -18 -4 -46 18 -46 27 0 42 20 30 42 -12 21 -32 23
-48 4z m37 -17 c-2 -6 -8 -10 -13 -10 -5 0 -11 4 -13 10 -2 6 4 11 13 11 9 0
15 -5 13 -11z"/>
</g>
</svg>
